<svg width="25" height="25" viewBox="0 0 25 25" fill="none" xmlns="http://www.w3.org/2000/svg">
<path d="M16.7633 18.9223L17.6352 18.4326L16.7633 18.9223ZM16.1777 20.3703L15.8915 19.4121L16.1777 20.3703ZM16.0385 6.66111L16.7337 7.37991L16.0385 6.66111ZM16.7633 5.90187L17.6352 6.39163L16.7633 5.90187ZM16.1777 4.45394L15.8915 5.41211L16.1777 4.45394ZM14.5996 12.4121C14.5996 10.4367 15.4166 8.65383 16.7337 7.37991L15.3433 5.94231C13.6527 7.57744 12.5996 9.87267 12.5996 12.4121H14.5996ZM16.7337 17.4443C15.4166 16.1704 14.5996 14.3875 14.5996 12.4121H12.5996C12.5996 14.9516 13.6527 17.2468 15.3433 18.8819L16.7337 17.4443ZM15.5996 19.4121C11.7336 19.4121 8.59961 16.2781 8.59961 12.4121H6.59961C6.59961 17.3827 10.629 21.4121 15.5996 21.4121V19.4121ZM8.59961 12.4121C8.59961 8.54612 11.7336 5.41211 15.5996 5.41211V3.41211C10.629 3.41211 6.59961 7.44155 6.59961 12.4121H8.59961ZM15.3433 18.8819C15.566 19.0973 15.7158 19.2424 15.8203 19.3498C15.8715 19.4026 15.9008 19.435 15.9164 19.4536C15.9352 19.4759 15.9175 19.4584 15.8915 19.4121L17.6352 18.4326C17.527 18.2401 17.3652 18.0699 17.2545 17.9559C17.1232 17.8209 16.9465 17.6501 16.7337 17.4443L15.3433 18.8819ZM15.5996 21.4121C15.8357 21.4121 16.152 21.4216 16.4639 21.3284L15.8915 19.4121C15.9195 19.4037 15.9304 19.4061 15.8879 19.4085C15.8328 19.4117 15.7565 19.4121 15.5996 19.4121V21.4121ZM15.8915 19.4121L16.4639 21.3284C17.6919 20.9616 18.2629 19.55 17.6352 18.4326L15.8915 19.4121ZM16.7337 7.37991C16.9465 7.17414 17.1232 7.00331 17.2545 6.86828C17.3652 6.75435 17.527 6.58414 17.6352 6.39163L15.8915 5.41211C15.9175 5.3658 15.9352 5.34834 15.9164 5.37063C15.9008 5.38918 15.8715 5.42161 15.8203 5.47437C15.7158 5.58179 15.566 5.72688 15.3433 5.94231L16.7337 7.37991ZM15.5996 5.41211C15.7565 5.41211 15.8328 5.41249 15.8879 5.41567C15.9304 5.41812 15.9195 5.42049 15.8915 5.41211L16.4639 3.49577C16.152 3.4026 15.8357 3.41211 15.5996 3.41211V5.41211ZM17.6352 6.39163C18.2629 5.27418 17.6919 3.8626 16.4639 3.49577L15.8915 5.41211L17.6352 6.39163Z" fill="#FFFFFF"/>
</svg>
