<svg width="2232" height="935" viewBox="0 0 2232 935" fill="black" xmlns="http://www.w3.org/2000/svg">
<path fill-rule="evenodd" clip-rule="evenodd" d="M582.404 1.42694C577.809 3.26928 577.2 7.22971 577.2 35.2774C577.2 49.5605 576.699 65.8508 576.086 71.4778C575.24 79.2597 575.26 82.9914 576.172 87.0657C577.588 93.387 581.926 98.8461 586.549 100.121C589.706 100.993 665.57 100.621 669.941 99.7123C671.192 99.4525 673.104 98.3525 674.189 97.2675C676.097 95.3612 676.164 93.7696 676.164 50.4237V5.55322L673.088 2.96655L670.013 0.379883L627.355 0.442826C603.858 0.477794 583.667 0.919397 582.404 1.42694ZM200.223 158.24C196.036 158.723 187.371 160.293 180.966 161.728C128.709 173.443 82.8442 202.801 48.172 246.73C27.7845 272.561 11.1106 307.955 4.43406 339.574C0.741425 357.062 0.281597 378.137 0.306588 528.679C0.32858 664.382 0.43254 672.999 2.08693 675.798C3.05357 677.433 4.53403 678.983 5.37672 679.244C6.22041 679.503 26.0951 679.809 49.5434 679.922C96.859 680.152 95.4475 680.335 99.0412 673.514C100.629 670.5 100.73 660.72 100.501 532.4C100.246 389.76 100.535 376.527 104.327 357.296C110.461 326.193 126.783 300.892 152.712 282.292C159.774 277.226 179.803 267.401 189.343 264.324C214.801 256.11 245.454 256.94 268.016 266.454C308.105 283.358 335.875 315.61 345.599 356.559C347.719 365.484 347.739 366.692 348.259 518.458C348.753 662.348 348.888 671.523 350.548 674.053C354.585 680.21 353.325 680.057 399.684 680.012C429.182 679.983 442.642 679.627 444.115 678.84C449.594 675.909 449.321 685.005 448.991 516.168C448.651 342.078 449.197 355.625 441.27 324.587C436.033 304.081 426.646 281.554 417.814 268.301C415.859 265.368 414.26 262.753 414.26 262.489C414.26 262.227 411.174 257.854 407.404 252.773C382.986 219.874 346.723 192.074 304.97 174.245C292.744 169.024 272.866 163.002 258.659 160.216C246.364 157.804 213.597 156.696 200.223 158.24ZM1500.45 158.258C1450.86 162.716 1402.8 183.414 1363.41 217.285C1318.3 256.071 1284.29 308.717 1270.91 360.469C1264.3 386.025 1263.52 392.437 1263.52 420.501C1263.52 442.135 1263.83 447.217 1265.82 458.467C1271.42 490.073 1280.11 516.472 1294.41 545.388C1315.79 588.596 1345.06 621.949 1384.4 647.923C1436.14 682.083 1501.87 695.513 1564.45 684.712C1611.48 676.595 1645.65 660.924 1685.27 629.303C1691.12 624.638 1696.14 620.82 1696.44 620.82C1696.73 620.82 1696.83 632.397 1696.66 646.547C1696.32 674.125 1696.49 675.218 1701.4 678.436C1703.68 679.929 1708.4 680.096 1746.73 680.042C1770.25 680.008 1790.42 679.69 1791.54 679.335C1792.66 678.981 1794.4 677.471 1795.41 675.982C1797.17 673.385 1797.25 667.809 1797.23 541.392C1797.21 421.076 1797.05 408.328 1795.44 396.023C1788.62 344.057 1768.99 295.839 1738.88 257.15C1725.47 239.914 1702.25 218.117 1683.29 204.961C1675.23 199.368 1654.93 187.668 1647.38 184.268C1619.5 171.707 1593.51 164.35 1560.83 159.771C1547.07 157.842 1514.23 157.02 1500.45 158.258ZM2054.66 159.645C2020.28 165.733 1991.04 181.449 1966.47 207.051C1943.3 231.186 1930.18 259.219 1926.18 293.11C1919.74 347.618 1935.48 392.165 1972.04 422.935C1980.46 430.018 1997.69 441.009 2005.67 444.388C2008.15 445.434 2014.67 448.29 2020.17 450.733C2025.67 453.175 2031.74 455.862 2033.66 456.702C2053.89 465.537 2098.88 488.326 2107.84 494.277C2125.18 505.794 2134.46 524.811 2131.56 542.858C2128.13 564.106 2110.67 582.364 2088.9 587.457C2080.54 589.415 2066.28 588.898 2059.17 586.379C2045.09 581.39 2033.76 569.825 2029.14 555.724C2026.65 548.11 2024.04 543.263 2021.46 541.458C2017.66 538.797 2009.99 539.542 1996.03 543.929C1988.96 546.148 1973.96 550.207 1962.69 552.949C1936.74 559.261 1933.18 560.445 1930.71 563.583C1927.02 568.278 1928.74 577.02 1937.19 596.554C1957.39 643.197 1999.48 675.732 2053.49 686.449C2066.59 689.048 2092.9 688.778 2106.39 685.907C2149.93 676.637 2183.93 653.81 2207.07 618.323C2218.7 600.492 2225.86 583.051 2229.78 563.052C2232.75 547.855 2232.74 519.916 2229.76 504.682C2223.34 471.813 2208.52 446.406 2183.61 425.545C2167.02 411.656 2142.27 398.06 2108.14 384.082C2088.52 376.051 2065.17 364.509 2055.16 357.9C2026.12 338.731 2017.7 314.883 2030.78 288.863C2034.54 281.376 2046.74 268.936 2054.26 264.908C2067.87 257.624 2091.97 257.463 2104.12 264.576C2113.56 270.108 2121.67 280.816 2127.02 294.818C2130.82 304.783 2132.82 307.103 2137.61 307.103C2139.71 307.103 2148.79 305.115 2157.77 302.686C2166.76 300.256 2182.21 296.198 2192.1 293.667C2202 291.138 2212.95 288.327 2216.43 287.424C2228.82 284.208 2229.78 281.413 2224.2 264.768C2210.58 224.102 2183.45 192.556 2146.12 173.961C2137.64 169.734 2121.96 164.254 2110.8 161.608C2101.86 159.49 2097.08 159.022 2081.15 158.701C2068.18 158.439 2059.77 158.739 2054.66 159.645ZM586.854 166.322C582.246 167.07 579.468 169.562 578.147 174.136C577.442 176.576 577.206 256.475 577.406 424.497C577.684 657.872 577.796 671.45 579.459 674.492C580.428 676.262 582.224 678.247 583.453 678.905C586.587 680.58 667.827 680.553 670.965 678.876C672.163 678.234 673.861 676.324 674.737 674.631C676.183 671.836 676.326 648.536 676.279 422.899C676.223 149.355 676.714 169.941 670.159 167.226C667.836 166.264 657.472 165.917 628.781 165.837C607.729 165.779 588.862 165.996 586.854 166.322ZM785.623 166.187C763.082 166.517 744.541 166.886 744.423 167.008C742.194 169.31 742.309 171.733 745.035 179.927C747.557 187.508 756.204 211.601 762.173 227.675C764.118 232.916 768.155 244.076 778.612 273.134C782.073 282.75 787.924 298.936 791.616 309.101C801.588 336.564 810.755 362.006 815.656 375.825C818.05 382.575 821.809 392.916 824.007 398.805C826.206 404.693 830.993 417.828 834.643 427.994C842.311 449.346 849.636 469.563 856.905 489.439C859.719 497.132 864.024 509.046 866.473 515.915C872.622 533.161 882.593 560.844 890.582 582.854C894.271 593.02 899.681 608.082 902.604 616.324C916.471 655.44 920.885 667.516 922.367 670.378C924.886 675.246 930.637 679.763 934.353 679.793C936.121 679.807 963.037 679.848 994.167 679.885C1057.47 679.96 1054.68 680.261 1059.6 672.834C1061.01 670.7 1065.1 660.709 1068.68 650.632C1080.44 617.518 1084.8 605.429 1087.51 598.341C1088.98 594.494 1091.69 587.076 1093.52 581.855C1097.44 570.703 1102.92 555.545 1111.04 533.399C1114.27 524.607 1119.69 509.77 1123.09 500.429C1126.49 491.087 1132.07 475.801 1135.49 466.46C1138.91 457.118 1144.73 441.157 1148.42 430.991C1152.12 420.826 1157.76 405.315 1160.96 396.523C1174.66 358.918 1179.15 346.542 1185.44 329.083C1189.1 318.918 1194.31 304.531 1197.02 297.112C1199.73 289.694 1204.89 275.532 1208.49 265.641C1215.54 246.237 1224.04 223.071 1234.41 194.966C1241.69 175.245 1242.64 169.201 1238.78 167.133C1236.14 165.726 1146.43 165.724 1142.79 167.131C1137.36 169.226 1134.98 173.758 1125.96 199.201C1118.91 219.099 1112.3 237.425 1108.29 248.156C1106.35 253.377 1102.83 263.043 1100.47 269.637C1096.48 280.823 1093.47 289.088 1079.38 327.585C1076.36 335.827 1071.91 347.966 1069.5 354.56C1067.09 361.154 1062.2 374.418 1058.64 384.034C1055.08 393.65 1051.43 403.766 1050.52 406.514C1049.62 409.261 1046.92 416.679 1044.52 422.999C1042.12 429.318 1038.3 439.659 1036.02 445.978C1030.75 460.574 1023.23 481.132 1014.07 505.924C1010.11 516.639 1004.92 530.854 1002.52 537.512C1000.13 544.171 996.735 553.344 994.978 557.896L991.784 566.174L989.364 560.277C988.033 557.034 985.443 550.109 983.607 544.889C981.773 539.668 977.78 528.653 974.736 520.411C969.753 506.923 962.733 487.723 949.347 450.973C941.441 429.268 932.983 406.084 926.567 388.53C923.154 379.188 917.831 364.576 914.74 356.059C905.569 330.789 895.336 302.679 889.099 285.623C881.997 266.201 875.876 249.238 864.584 217.684C848.818 173.627 847.635 171.105 841.17 167.764C837.199 165.712 830.754 165.529 785.623 166.187ZM1561.34 261.162C1586 265.352 1611.61 277.175 1632.81 294.157C1656.38 313.042 1673.63 336.505 1685.29 365.551C1698.52 398.502 1699.75 440.442 1688.47 474.111C1676.36 510.276 1653.52 540.109 1622.02 560.923C1570.99 594.645 1507.76 598.016 1454.15 569.874C1429.91 557.151 1409.35 538.595 1393.15 514.818C1383.2 500.23 1372.43 473.486 1368.44 453.471C1352.35 372.74 1399.96 293.883 1481.2 266.717C1505.86 258.471 1534.01 256.52 1561.34 261.162ZM4.26513 817.76C2.81066 818.298 1.3542 819.729 1.03032 820.939C0.70544 822.148 0.43354 846.804 0.426542 875.729C0.413547 925.855 0.501516 928.431 2.30485 930.657C3.73133 932.417 5.20678 932.994 8.28964 932.994C15.8519 932.994 15.8399 933.036 16.4067 902.783C16.8675 878.18 17.0744 875.726 19.0547 871.445C24.4527 859.774 44.5283 856.828 53.6699 866.367C59.3278 872.27 59.7927 874.844 60.3645 903.406C60.8873 929.566 60.9043 929.735 63.2504 931.631C67.6538 935.191 73.6566 933.277 75.4879 927.729C77.2462 922.408 76.0687 880.917 73.9405 873.156C71.4724 864.156 68.6734 858.504 64.5899 854.278C59.8437 849.365 57.2276 848.036 49.5694 846.649C42.549 845.376 30.8173 846.618 21.7417 849.594L16.5796 851.286L16.2437 835.997C15.8758 819.307 15.538 818.31 9.90905 817.312C8.25966 817.019 5.71959 817.221 4.26513 817.76ZM1348.47 819.864C1347.11 821.806 1346.92 828.786 1346.92 875.658C1346.92 927.404 1346.98 929.292 1348.85 930.986C1351.31 933.211 1357.6 933.279 1359.78 931.105C1361.24 929.641 1361.44 923.932 1361.69 875.918C1362 814.95 1362.33 817.643 1354.45 817.643C1351.02 817.643 1349.68 818.138 1348.47 819.864ZM1564.07 818.892C1562.59 820.705 1561.61 866.085 1562.63 885.78C1563.47 902.245 1563.53 902.562 1567.17 909.93C1573.03 921.776 1582.85 929.305 1597.28 933.009C1604.81 934.94 1609.85 934.939 1617.28 933.006C1625.56 930.851 1631.85 927.158 1638.33 920.659C1655.84 903.07 1656.04 876.122 1638.79 858.167C1625.93 844.784 1605.79 841.293 1589.44 849.614C1581.32 853.743 1579.16 853.602 1577.96 848.865C1577.43 846.804 1577.05 840.104 1577.1 833.976C1577.21 820.038 1576.09 817.643 1569.43 817.643C1567.04 817.643 1564.62 818.205 1564.07 818.892ZM1881.31 819.812C1880.19 821.419 1879.72 824.367 1879.72 829.887C1879.72 839.611 1878.11 843.732 1873.44 845.945C1871.51 846.863 1869.46 847.616 1868.89 847.616C1866.95 847.616 1864.73 850.758 1864.73 853.49C1864.73 857.37 1866.76 859.666 1871.82 861.52C1879.49 864.328 1879.72 865.396 1879.72 899.237C1879.72 915.266 1879.99 929.068 1880.31 929.911C1880.63 930.754 1882.37 931.929 1884.16 932.521C1888.4 933.92 1892.42 932.44 1893.73 928.995C1894.3 927.516 1894.71 913.71 1894.71 896.642V866.871L1897.25 864.336C1898.65 862.942 1901.01 861.496 1902.5 861.125C1906.78 860.057 1908.71 857.709 1908.71 853.577C1908.71 849.488 1907.65 848.237 1903.33 847.203C1901.75 846.824 1899.16 845.223 1897.59 843.645C1894.86 840.922 1894.71 840.327 1894.7 831.957C1894.68 820.341 1893.61 818.236 1887.54 817.842C1883.66 817.59 1882.64 817.911 1881.31 819.812ZM914.794 819.733C908.405 821.235 905.205 823.478 901.509 829.043C895.141 838.628 895.083 839.165 895.083 888.238V932.539H901.581H908.078V900.568V868.597H917.575H927.071V863.14V857.682L917.825 857.395L908.578 857.107L908.831 850.613C909.015 845.899 909.837 842.612 911.83 838.624C914.205 833.871 915.096 833.001 918.426 832.179L922.277 831.227L921.639 826.422C920.919 821.001 920.161 818.595 919.217 818.742C918.863 818.798 916.873 819.243 914.794 819.733ZM1799.75 819.3C1796.1 820.765 1794.75 822.992 1794.75 827.566C1794.75 833.301 1796.8 836.357 1801.19 837.18C1808.08 838.472 1812.74 834.786 1812.74 828.055C1812.74 822.479 1810.36 819.631 1805.24 819.106C1803.04 818.883 1800.57 818.97 1799.75 819.3ZM1964 819.648C1962.8 820.132 1961.34 821.422 1960.76 822.516C1959.2 825.417 1959.45 831.847 1961.22 834.366C1964.22 838.653 1974.27 838.128 1976.72 833.557C1977.81 831.531 1978 825.627 1977.06 823.183C1975.69 819.609 1968.76 817.733 1964 819.648ZM167.602 846.133C164.166 846.879 159.111 848.711 156.369 850.202C149.734 853.812 139.884 864.215 136.877 870.79C127.542 891.199 135.258 915.778 154.549 927.078C163.493 932.317 170.102 933.876 180.969 933.307C188.905 932.893 191.24 932.33 197.523 929.321C210.78 922.97 218.992 911.848 221.519 896.821C223.944 882.403 218.967 867.324 208.484 857.329C201.586 850.754 196.332 847.933 187.488 846.06C179.43 844.353 175.74 844.367 167.602 846.133ZM554.597 846.053C545.85 848.03 540.594 851.037 533.721 857.994C507.392 884.652 521.568 927.302 558.881 933.69C564.395 934.634 567.485 934.652 572.245 933.767C579.831 932.357 589.557 927.92 594.423 923.651C601.475 917.462 610.956 899.766 609.763 895.016C609.092 892.345 604.58 889.578 600.896 889.578C597.737 889.578 596.126 891.554 591.788 900.752C585.645 913.777 576.502 919.39 563.3 918.242C554.169 917.449 550.538 915.998 549.742 912.829C549.281 910.994 549.62 909.739 550.9 908.541C552.839 906.724 591.202 881.692 595.259 879.596C602.395 875.908 604.898 871.226 602.634 865.801C596.665 851.5 573.193 841.85 554.597 846.053ZM786.123 845.279C774.361 847.107 767.919 850.084 760.102 857.306C753.52 863.384 748.569 873.021 746.839 883.123C742.868 906.289 760.502 929.619 784.874 933.445C800.109 935.837 816.89 929.156 826.559 916.847C840.019 899.714 838.287 874.159 822.584 858.211C812.991 848.469 798.549 843.348 786.123 845.279ZM1095.17 846.109C1086.55 848.037 1080.93 850.926 1074.69 856.625C1065.4 865.11 1061.05 875.843 1061.03 890.359C1061.01 903.743 1065.95 915.017 1075.49 923.39C1080.31 927.624 1090.39 932.177 1097.91 933.531C1111.78 936.023 1128.32 930.422 1137.96 919.971C1142.66 914.874 1149.99 900.543 1149.99 896.447C1149.99 890.929 1140.35 887.181 1136.81 891.326C1135.99 892.287 1133.63 896.222 1131.57 900.068C1124.27 913.684 1115.98 919.179 1104.04 918.319C1092.8 917.51 1082.89 910.975 1078.66 901.578C1075.71 895.043 1075.8 883.787 1078.86 876.971C1083.64 866.304 1091.84 861.612 1107.35 860.683C1116.24 860.149 1117.38 859.856 1119.19 857.624C1120.68 855.776 1121.04 854.27 1120.62 851.638C1119.9 847.236 1117.74 845.62 1112.56 845.607C1110.33 845.601 1106.93 845.392 1105.01 845.142C1103.08 844.892 1098.65 845.328 1095.17 846.109ZM1234.96 845.715C1222.49 848.149 1210.16 858.278 1203.77 871.348C1200.62 877.792 1200.47 878.596 1200.47 889.67C1200.47 901.139 1200.51 901.325 1204.34 908.872C1213.16 926.248 1232.92 936.884 1250.55 933.758C1269.39 930.42 1282.58 919.187 1287.91 901.93C1290.17 894.622 1289.61 892.161 1285.31 890.529C1279.08 888.159 1276.18 890.039 1271.41 899.569C1267.53 907.327 1264.13 911.48 1259 914.733C1255.37 917.039 1253.44 917.553 1248.41 917.553C1242.69 917.553 1234.23 915.378 1228.94 912.544C1226.77 911.386 1226.76 911.313 1228.59 909.57C1229.62 908.586 1241.03 901.049 1253.95 892.82C1266.87 884.59 1278.68 876.701 1280.19 875.289C1285.53 870.302 1282.54 862.097 1272.71 854.769C1265.4 849.322 1262.51 848.019 1253.71 846.201C1245.33 844.473 1241.79 844.382 1234.96 845.715ZM1454.92 845.756C1434.62 849.118 1418.86 868.509 1418.9 890.055C1418.94 907.19 1427.66 920.873 1443.58 928.758C1451.52 932.686 1452.78 933.004 1461.89 933.37C1472.58 933.799 1478.49 932.48 1486.86 927.8C1495.67 922.877 1500.5 916.656 1506.31 902.742C1509.32 895.526 1509.01 893.221 1504.72 891.006C1499.04 888.069 1496.8 889.26 1492.36 897.571C1487.85 906.023 1481.3 913.163 1475.37 916.083C1466.32 920.538 1448.82 917.551 1448.08 911.426C1447.82 909.268 1449.66 907.748 1463.58 898.613C1472.26 892.912 1483.75 885.597 1489.1 882.358C1494.45 879.119 1499.51 875.497 1500.35 874.309C1506.92 864.932 1490.31 848.801 1470.87 845.677C1463.52 844.495 1462.49 844.5 1454.92 845.756ZM2067.95 846.123C2060.05 847.84 2054.01 851.401 2047.23 858.342C2040.88 864.836 2037.31 871.01 2035.2 879.122C2033.26 886.546 2033.26 891.586 2035.19 899.109C2041.01 921.754 2059.23 934.375 2084.64 933.373C2095.2 932.958 2102.76 929.607 2110.14 922.066C2115.69 916.386 2123.63 901.421 2123.63 896.628C2123.63 891.304 2115.67 887.528 2111.4 890.827C2110.52 891.514 2108.42 894.998 2106.75 898.57C2102.52 907.593 2098.62 911.912 2091.47 915.484C2084.09 919.17 2075.61 919.628 2069.15 916.69C2063.77 914.245 2062.19 912.268 2063.7 909.888C2064.8 908.139 2102.4 882.865 2108.99 879.432C2114.45 876.591 2117.63 872.704 2117.63 868.868C2117.63 865.962 2116.64 864.42 2111.36 859.142C2103.88 851.667 2097.69 848.326 2087.38 846.197C2078.38 844.34 2076.2 844.332 2067.95 846.123ZM428.494 846.951C423.372 848.808 418.993 852.851 415.764 858.707C413.31 863.156 412.793 865.239 412.812 870.595C412.853 882.071 417.28 887.733 431.629 894.658C436.509 897.013 442.079 900.427 444.007 902.244C447.187 905.243 447.462 905.931 446.963 909.651C445.732 918.82 439.041 921.003 430.39 915.055C424.142 910.76 420.235 910.501 417.332 914.191C414.328 918.007 414.681 921.816 418.381 925.513C428.819 935.947 445.231 936.413 455.39 926.563C463.078 919.111 465.215 908.343 460.862 898.998C457.964 892.777 453.859 889.304 442.825 883.736C431.794 878.171 428.255 874.908 428.255 870.3C428.255 867.827 429.101 865.905 431.155 863.707C435.006 859.586 439.39 859.548 445.349 863.583C450.694 867.203 455.325 867.502 458.205 864.411C459.325 863.21 460.243 861.188 460.243 859.919C460.243 856.819 453.693 849.733 448.747 847.482C444.128 845.379 433.593 845.103 428.494 846.951ZM1728.07 848.525C1720.88 851.956 1713.66 858.251 1710.25 864.066C1705.62 871.962 1704.66 879.572 1704.98 905.649C1705.32 932.034 1705.33 932.105 1711.87 933.167C1714.42 933.579 1715.96 933.21 1717.76 931.76L1720.19 929.793L1720.35 904.939C1720.44 889.846 1720.94 878.748 1721.62 876.676C1724.06 869.21 1727.73 865.549 1738.21 860.138C1743.75 857.276 1744.54 855.577 1742.75 850.389C1741.42 846.557 1740.91 846.089 1737.77 845.843C1735.5 845.665 1732.09 846.609 1728.07 848.525ZM2197.36 847.039C2191.58 849.1 2188.73 851.342 2185.59 856.297C2178.87 866.886 2179.81 879.856 2187.83 887.34C2189.17 888.582 2194.72 891.873 2200.18 894.651C2212.55 900.953 2215.6 903.696 2215.6 908.526C2215.6 911.885 2213.57 916.112 2211.16 917.787C2208.65 919.527 2203.78 918.429 2199.03 915.055C2192.86 910.671 2189.62 910.564 2186.2 914.632C2183.15 918.256 2183.05 919.19 2185.36 922.665C2189.95 929.545 2197.68 933.549 2206.32 933.516C2224.16 933.448 2235.86 916.844 2229.65 900.396C2227.02 893.441 2222.29 888.95 2212.37 883.999C2198.65 877.15 2195.42 873.363 2198 867.181C2200.86 860.355 2207.99 858.543 2213.57 863.23C2215.49 864.844 2218.34 866.041 2220.98 866.339C2224.78 866.767 2225.52 866.501 2227.49 864.006C2229.02 862.055 2229.53 860.409 2229.12 858.649C2228.43 855.654 2221.46 849.032 2216.88 847.026C2212.86 845.266 2202.32 845.273 2197.36 847.039ZM278.751 848.032C277.024 849.292 276.749 851.13 276.248 864.767C275.447 886.559 276.54 903.722 279.163 910.559C286.534 929.773 310.949 939.238 330.102 930.306C336.483 927.331 344.291 919.3 347.843 912.058L350.783 906.063L351.104 878.246C351.396 853.025 351.264 850.25 349.7 848.523C347.627 846.233 341.566 845.962 338.729 848.033C336.915 849.357 336.756 851.193 336.283 876.258C335.791 902.327 335.71 903.183 333.358 907.298C329.24 914.499 321.61 918.552 312.168 918.552C305.318 918.552 298.769 913.863 294.826 906.137L291.805 900.216L291.305 875.066C290.923 855.799 290.485 849.529 289.434 848.266C287.732 846.22 281.425 846.082 278.751 848.032ZM1798.31 848.838C1796.96 850.755 1796.75 856.393 1796.75 890.228C1796.75 924.49 1796.95 929.596 1798.32 930.968C1800.68 933.321 1804.27 933.879 1807.4 932.376C1811.52 930.405 1811.88 926.282 1811.54 885.361C1811.26 851.151 1811.15 849.384 1809.31 848.033C1806.21 845.771 1800.14 846.215 1798.31 848.838ZM1963.72 848.549C1962.62 850.609 1962.2 927.108 1963.28 929.911C1963.6 930.754 1965.45 931.966 1967.39 932.604C1970.43 933.61 1971.25 933.506 1973.5 931.829C1974.93 930.763 1976.47 928.434 1976.94 926.651C1977.4 924.869 1977.64 907.078 1977.48 887.115C1977.2 853.058 1977.07 850.691 1975.28 848.719C1972.68 845.85 1965.23 845.741 1963.72 848.549ZM2090.75 862.659C2095.53 865.216 2095.56 871.555 2090.81 873.522C2087.75 874.79 2067.93 887.334 2060.88 892.465C2056.13 895.927 2053.56 896.336 2051.23 894.003C2049.11 891.884 2049.25 888.168 2051.74 880.818C2055.35 870.11 2061.85 864.045 2072.66 861.28C2078.04 859.904 2086.85 860.576 2090.75 862.659ZM186.569 861.649C195.293 864.07 204.302 874.289 206.333 884.065C209.237 898.046 199.184 913.815 184.904 917.677C172.214 921.108 157.757 914.184 151.647 901.749C140.802 879.676 162.354 854.927 186.569 861.649ZM576.271 863.352C579.256 864.863 581.698 866.754 581.698 867.556C581.698 868.357 579.586 870.605 577.004 872.551C571.745 876.516 540.434 895.893 538.474 896.395C537.536 896.635 537.215 894.585 537.215 888.348C537.215 880.83 537.507 879.526 540.084 875.536C543.653 870.01 548.505 865.436 553.694 862.702C559.739 859.518 569.238 859.791 576.271 863.352ZM803.733 863.395C809.952 866.583 813.4 869.88 816.658 875.757C819.246 880.427 819.609 882.074 819.592 889.078C819.575 895.794 819.142 897.891 816.883 902.204C815.403 905.028 812.038 909.181 809.404 911.434C797.409 921.696 781.446 920.874 770.427 909.427C761.593 900.251 759.401 888.684 764.515 878.236C767.716 871.697 775.386 864.411 781.4 862.197C787.261 860.037 798.342 860.633 803.733 863.395ZM1256.09 862.572C1257.54 863.26 1259.27 865 1259.92 866.44C1261 868.812 1260.84 869.294 1258.15 871.575C1256.52 872.959 1250.85 876.789 1245.55 880.086C1240.26 883.383 1232.52 888.27 1228.35 890.946C1221.3 895.472 1220.6 895.716 1218.25 894.46C1215.88 893.194 1215.76 892.737 1216.21 887.068C1217.06 876.56 1223.34 867.721 1233.36 862.935C1237.72 860.852 1239.54 860.558 1245.95 860.911C1250.08 861.138 1254.64 861.885 1256.09 862.572ZM1471.56 861.661C1475.49 863.14 1480.85 866.888 1480.86 868.167C1480.87 870.085 1440.14 895.748 1437.65 895.395C1432.4 894.649 1435.07 878.239 1441.7 870.493C1448.55 862.496 1462.66 858.321 1471.56 861.661ZM1620.96 864.296C1637.31 873.476 1640.81 896.556 1627.82 909.589C1622.06 915.373 1616.84 917.841 1609.32 918.337C1597.98 919.085 1586.45 912.505 1581.07 902.204C1577.31 895.026 1577.21 884.297 1580.82 877.218C1583.85 871.281 1590.98 864.702 1596.92 862.365C1603.81 859.649 1614.16 860.48 1620.96 864.296Z" fill="white"/>
</svg>
